<svg width="12" height="12" viewBox="0 0 12 12" fill="none" xmlns="http://www.w3.org/2000/svg">
<path d="M0.75 11.25H11.25M7.04091 2.0985C7.04091 2.0985 7.04091 3.05203 7.99444 4.00556C8.94797 4.95909 9.9015 4.95909 9.9015 4.95909M3.26978 9.49304L5.2722 9.20698C5.56104 9.16572 5.82871 9.03189 6.03502 8.82557L10.855 4.00556C11.3817 3.47894 11.3817 2.62512 10.855 2.0985L9.9015 1.14497C9.37488 0.618345 8.52106 0.618345 7.99444 1.14497L3.17443 5.96498C2.96811 6.17129 2.83428 6.43896 2.79302 6.7278L2.50696 8.73022C2.44339 9.1752 2.8248 9.55661 3.26978 9.49304Z" stroke="white" stroke-linecap="round"/>
</svg>
