<svg width="156" height="104" viewBox="0 0 156 104" fill="none" xmlns="http://www.w3.org/2000/svg">
<path fill-rule="evenodd" clip-rule="evenodd" d="M0.184906 86.1781C0.738093 85.0261 2.8112 84.916 3.23818 86.2211C3.49725 86.8411 3.64046 87.4982 3.78332 88.1536L3.78333 88.1537C3.82113 88.3271 3.8589 88.5003 3.89879 88.6728C4.18526 89.9453 4.47088 91.2178 4.7565 92.4904L4.75671 92.4913L4.75682 92.4918L4.75693 92.4923L4.75703 92.4927L4.75714 92.4932L4.75725 92.4937L4.75735 92.4942C5.1863 94.4052 5.61524 96.3163 6.04709 98.2274C6.52001 96.5205 6.97721 94.8088 7.43447 93.0968C7.94047 91.2024 8.44656 89.3076 8.97414 87.4187C9.19971 86.5111 9.7717 85.5578 10.7545 85.3591C11.5172 85.2248 12.4248 85.2436 12.9995 85.8397C13.5003 86.2852 13.6932 86.9428 13.8754 87.5636L13.8857 87.5987C14.3189 89.1438 14.7358 90.693 15.1525 92.2421L15.1525 92.2421L15.1526 92.2422L15.1526 92.2422L15.1526 92.2422L15.1526 92.2422L15.1526 92.2422L15.1526 92.2423L15.1526 92.2423L15.1526 92.2423C15.689 94.2361 16.2254 96.2297 16.7966 98.2139C17.6237 94.484 18.4643 90.7593 19.3075 87.032C19.4525 86.2023 20.0003 85.2543 20.9617 85.2946C22.205 85.1281 23.1637 86.4413 22.7689 87.5987C22.0918 90.5513 21.3558 93.4915 20.6197 96.4318L20.6197 96.4318L20.6197 96.4318L20.6197 96.4319C20.2231 98.0161 19.8265 99.6004 19.4391 101.187C19.4104 101.291 19.3824 101.398 19.3541 101.506C19.1283 102.37 18.8797 103.321 18.0373 103.767C17.1887 104.135 16.0367 104.09 15.3788 103.37C14.9682 102.97 14.8063 102.421 14.6481 101.884C14.6098 101.754 14.5716 101.625 14.5302 101.498C14.0443 99.7682 13.5792 98.032 13.114 96.2958C12.5612 94.2321 12.0083 92.1683 11.4205 90.1149L11.1313 91.1816C10.1725 94.7179 9.21288 98.2572 8.22224 101.785C8.0101 102.65 7.56701 103.598 6.6513 103.885C5.86448 104.079 4.89774 104.041 4.3177 103.405C3.80918 102.821 3.61522 102.059 3.42758 101.323C3.40218 101.223 3.3769 101.124 3.35097 101.026C2.94563 99.3896 2.5411 97.754 2.1366 96.1185C1.50132 93.55 0.866101 90.9816 0.227873 88.4123C0.20955 88.3252 0.189843 88.237 0.169961 88.1481C0.0237516 87.4938 -0.131861 86.7974 0.184906 86.1781ZM58.1031 85.5685C58.8953 85.0636 60.1279 85.2301 60.6381 86.0653C60.9513 86.5574 60.9677 87.1554 60.9833 87.7251C60.9845 87.7708 60.9858 87.8164 60.9872 87.8618C60.9845 90.143 60.9852 92.4249 60.9858 94.7068C60.9865 96.9887 60.9872 99.2706 60.9845 101.552C60.9684 102.167 60.9388 102.841 60.5414 103.346C59.8539 104.243 58.2669 104.208 57.6466 103.249C57.3109 102.752 57.2787 102.135 57.2894 101.557C57.2945 99.2925 57.2936 97.0284 57.2926 94.7647V94.761V94.7609V94.7607V94.7606V94.7604V94.7602V94.7601V94.7599V94.7598C57.2915 92.2713 57.2905 89.7833 57.2975 87.2952C57.2921 86.6426 57.5257 85.9283 58.1031 85.5685ZM85.9343 85.2972C83.5336 85.265 81.0228 85.9309 79.2316 87.5932C77.5828 89.089 76.7638 91.299 76.5838 93.4795C76.3583 96.0011 76.8255 98.6945 78.3884 100.743C79.6022 102.368 81.4873 103.391 83.4584 103.773C86.7668 104.388 90.3356 103.689 93.0935 101.74C93.8304 101.2 93.8244 100.246 93.8192 99.4065V99.406V99.4056V99.4051V99.4046V99.4042C93.8186 99.3082 93.818 99.2137 93.8186 99.1215C93.8021 98.6802 93.8089 98.2372 93.8157 97.7943C93.8267 97.0809 93.8376 96.3674 93.7514 95.6601C93.6494 94.8679 92.8894 94.3308 92.1214 94.3308C91.2776 94.2899 90.4329 94.296 89.5884 94.3021C88.9923 94.3065 88.3962 94.3108 87.8007 94.2986C87.6949 94.3005 87.5869 94.2991 87.4781 94.2977C86.9681 94.2914 86.4385 94.2848 86.0202 94.6101C85.2495 95.1391 85.3435 96.5811 86.3103 96.8336C87.1656 97.0393 88.0482 97.0152 88.931 96.9911C89.4313 96.9775 89.9316 96.9638 90.427 96.992C90.4243 97.9561 90.4243 98.9201 90.4243 99.8842C88.2357 101.042 85.4912 101.667 83.163 100.561C81.0845 99.5082 80.2762 97.0457 80.2843 94.8544C80.1903 92.5638 80.918 89.9107 83.0798 88.7613C85.0079 87.7677 87.8302 87.8429 89.197 89.7307C89.3896 89.9518 89.5508 90.2126 89.7126 90.4743C90.0539 91.0265 90.3978 91.5829 91.0446 91.7797C92.1214 92.1449 93.3943 91.1701 93.2493 90.0235C93.1499 88.8553 92.4141 87.8429 91.5602 87.0857C90.0107 85.7806 87.9296 85.2569 85.9343 85.2972ZM136.884 87.3139C136.879 86.6023 137.083 85.7805 137.765 85.4234C138.369 85.2005 139.15 85.2274 139.628 85.7134C140.085 86.2183 140.098 86.946 140.106 87.5905C140.102 91.1513 140.103 94.7121 140.103 98.2729C140.104 99.4598 140.104 100.647 140.104 101.834C140.093 102.341 140.074 102.889 139.787 103.332C139.285 104.122 137.998 104.226 137.378 103.528C136.923 103.093 136.894 102.435 136.868 101.844L136.863 101.724C135.823 102.986 134.338 104.006 132.644 103.979C130.616 104.124 128.68 102.862 127.783 101.076C126.701 98.9281 126.615 96.3368 127.324 94.0622C127.993 91.9166 130.106 90.3108 132.378 90.4021C134.129 90.249 135.764 91.1379 136.884 92.4349C136.884 91.8655 136.883 91.2964 136.882 90.7274V90.7217V90.7214V90.7211V90.7208V90.7205V90.7202V90.7199C136.879 89.5847 136.877 88.4499 136.884 87.3139ZM132.743 93.0606C131.366 93.3963 130.552 94.7739 130.369 96.1004C130.16 97.6311 130.329 99.4276 131.54 100.531C132.829 101.748 135.179 101.396 136.044 99.8412C136.876 98.3723 136.889 96.4818 136.269 94.9323C135.724 93.5735 134.191 92.6766 132.743 93.0606ZM153.477 86.648C151.678 85.2113 149.154 85.0126 146.992 85.5872C144.908 86.1995 142.999 87.9987 142.88 90.2598C142.741 91.4279 144.049 92.4886 145.155 91.9838C145.811 91.6648 146.039 91.0199 146.269 90.369C146.421 89.9403 146.573 89.5091 146.849 89.1668C147.518 87.9638 149.14 87.7973 150.327 88.2108C151.546 88.6432 152.252 90.241 151.503 91.3662C151.024 92.0506 150.393 92.5972 149.761 93.1439C149.08 93.734 148.398 94.3242 147.907 95.0881C147.309 96.0065 147.113 97.1639 147.322 98.2354C147.626 99.4142 149.508 99.6291 150.067 98.5469C150.18 98.2701 150.249 97.9737 150.318 97.6774C150.442 97.1485 150.565 96.62 150.942 96.2052C151.407 95.6683 151.947 95.1936 152.487 94.7189C153.388 93.9257 154.289 93.1328 154.844 92.0509C155.738 90.2249 155.061 87.8725 153.477 86.648ZM65.5631 86.7903C66.0465 85.4637 68.1787 85.555 68.6217 86.8681C68.8095 87.6821 68.792 88.5179 68.7746 89.3538V89.3541C68.7653 89.7976 68.7561 90.2411 68.7775 90.6814C68.939 90.6821 69.1013 90.6787 69.2639 90.6754C69.7229 90.666 70.1843 90.6565 70.6385 90.7378C71.4629 90.9338 71.7609 92.1046 71.1702 92.69C70.6114 93.1124 69.8994 93.1041 69.2203 93.0961C69.0704 93.0944 68.9222 93.0926 68.7775 93.0955C68.7769 93.6023 68.7758 94.1091 68.7748 94.6158C68.7713 96.3057 68.7678 97.9956 68.7802 99.6854L68.7841 99.7749C68.8058 100.288 68.8336 100.943 69.3736 101.179C69.8077 101.321 70.2496 101.24 70.6928 101.159C71.0257 101.099 71.3594 101.038 71.6911 101.071C72.5827 101.281 72.8485 102.519 72.2255 103.147C71.5246 103.829 70.4747 103.931 69.5455 103.974C68.4338 104.004 67.177 103.974 66.315 103.174C65.5073 102.422 65.4455 101.234 65.3919 100.206L65.3913 100.193C65.3807 98.8711 65.382 97.5484 65.3832 96.2257C65.3842 95.1866 65.3852 94.1475 65.3805 93.109C65.2779 93.1033 65.1716 93.1021 65.0639 93.1008C64.6134 93.0958 64.1384 93.0904 63.8069 92.7545C63.2913 92.3168 63.3047 91.4172 63.8337 90.9983C64.1979 90.6864 64.6778 90.6775 65.1378 90.6689C65.2205 90.6674 65.3026 90.6659 65.3832 90.6626C65.4072 90.2189 65.3943 89.7702 65.3815 89.3214C65.3569 88.4662 65.3324 87.6109 65.5631 86.7903ZM28.2068 90.4209C26.4613 90.719 24.4607 91.8119 24.2915 93.7669C24.1197 94.6262 24.9521 95.3808 25.7846 95.2841C26.3929 95.3626 26.6944 94.8818 26.9845 94.4192C27.0914 94.2487 27.1967 94.0807 27.3153 93.9441C28.188 92.6041 30.0195 92.5477 31.4239 92.8646C32.4578 93.1251 32.6162 94.3308 32.7021 95.225C31.1321 95.6906 29.5271 96.0203 27.9252 96.3495L27.9251 96.3495L27.9242 96.3497L27.9238 96.3498C27.6411 96.4079 27.3585 96.466 27.0763 96.5247C26.0532 96.7288 25.0461 97.1961 24.3963 98.0366C23.2416 99.4733 23.5128 101.785 24.9253 102.954C25.9618 103.853 27.3985 104.089 28.7305 103.952C30.3095 103.858 31.6951 102.996 32.9197 102.059C32.9671 102.131 33.0143 102.203 33.0618 102.276L33.0626 102.277L33.0627 102.277L33.0627 102.277C33.4473 102.867 33.8445 103.475 34.4584 103.848C35.3231 104.288 36.5718 103.622 36.6255 102.637C36.5869 102.184 36.461 101.748 36.3351 101.313C36.2065 100.869 36.078 100.425 36.0427 99.962C35.9893 99.0648 36.0007 98.1653 36.012 97.2662V97.2661V97.2661V97.266V97.266C36.0258 96.1765 36.0395 95.0874 35.938 94.0032C35.8037 92.6873 35.119 91.3259 33.8219 90.8317C32.0523 90.1255 30.0651 90.1792 28.2068 90.4209ZM27.1085 99.6452C27.2079 98.8718 27.9812 98.434 28.6687 98.2541C29.1838 98.1261 29.7032 98.0152 30.2227 97.9043C31.0548 97.7265 31.8871 97.5488 32.7021 97.3008C32.6962 97.4455 32.6925 97.592 32.6887 97.7396C32.6671 98.5941 32.6446 99.4809 32.1865 100.225C31.4427 101.321 30.0141 101.788 28.7385 101.638C27.7879 101.541 26.9205 100.631 27.1085 99.6452ZM42.2782 90.4505C44.1257 90.1041 46.1398 90.1873 47.8504 91.0332C48.7688 91.5139 49.6925 92.3732 49.6657 93.493C49.6227 94.6638 47.9927 95.0962 47.2059 94.3684C46.9867 94.1726 46.789 93.9439 46.5909 93.7148C46.1507 93.2056 45.7087 92.6944 45.0253 92.537C44.0479 92.3463 42.7965 92.3839 42.1627 93.2755C41.7384 93.9307 42.3104 94.6746 42.9442 94.8948C43.6886 95.1982 44.4837 95.3945 45.2791 95.5909C46.7361 95.9507 48.1945 96.3108 49.3461 97.3304C51.0621 98.8772 50.3666 101.938 48.4814 103.045C46.7118 104.089 44.5286 104.122 42.5494 103.821C40.761 103.488 38.7308 102.234 38.7362 100.204C38.7416 99.041 40.436 98.4475 41.1477 99.3605C41.2285 99.4757 41.3084 99.5942 41.389 99.7135C41.881 100.443 42.396 101.206 43.2799 101.471C44.3835 101.772 45.7853 101.836 46.6581 100.969C47.3079 100.365 46.9669 99.1967 46.1854 98.8825C45.4097 98.5143 44.5807 98.3015 43.7509 98.0886C42.9893 97.8932 42.2271 97.6976 41.5048 97.3814C40.1944 96.89 38.8812 95.8105 38.8919 94.2932C38.7684 92.341 40.4817 90.8103 42.2782 90.4505ZM107.825 91.9865C106.131 90.3645 103.588 89.9859 101.356 90.4317C99.5492 90.7996 97.9003 91.9811 97.1189 93.6675C95.8568 96.4147 96.1173 100.08 98.3676 102.253C100.169 103.993 102.938 104.328 105.282 103.697C107.321 103.16 108.967 101.469 109.504 99.4384C110.191 96.9061 109.802 93.8582 107.825 91.9865ZM99.8929 95.8964C100.078 94.7336 100.712 93.5306 101.861 93.0768C103.003 92.6256 104.445 92.8297 105.299 93.7535C106.112 94.6101 106.37 95.8346 106.4 96.9813C106.416 98.2219 106.174 99.57 105.288 100.502C104.079 101.793 101.708 101.691 100.666 100.241C99.7721 99.0007 99.6539 97.3626 99.8929 95.8964ZM116.4 90.4585C118.642 89.9751 121.215 90.3242 122.942 91.9355C124.687 93.5198 125.211 96.0548 124.907 98.3186C124.671 100.392 123.438 102.384 121.521 103.292C118.787 104.554 115.098 104.175 113.094 101.78C111.402 99.7446 111.182 96.7826 112.009 94.3416C112.654 92.3813 114.397 90.8935 116.4 90.4585ZM117.122 93.0418C115.884 93.4796 115.221 94.7793 115.044 96.0092C114.84 97.4727 114.961 99.1215 115.909 100.325C116.993 101.729 119.359 101.761 120.519 100.437C121.354 99.5029 121.591 98.1951 121.569 96.9813C121.545 95.797 121.266 94.5242 120.388 93.6702C119.547 92.8324 118.213 92.6552 117.122 93.0418ZM150.749 102.357C150.953 101.162 149.763 100.115 148.606 100.349C147.188 100.448 146.479 102.379 147.451 103.394C148.434 104.522 150.716 103.963 150.749 102.357Z" fill="#2C64AF"/>
<path d="M70.2813 0.783113C72.0966 -0.350115 74.5994 -0.248072 76.3046 1.05433C77.983 2.27081 78.8208 4.51579 78.3455 6.53519C78.0528 7.99066 77.0861 9.23131 75.8535 10.0262C83.5981 10.0181 91.3427 9.99664 99.0873 10.0369C102.178 10.0638 104.939 12.7841 104.99 15.8776C104.998 18.367 104.992 20.8536 104.99 23.343C83.5498 23.3349 62.1124 23.3564 40.6724 23.3322C40.6992 20.7623 40.6482 18.1924 40.6965 15.6252C40.8872 12.5827 43.6639 10.0047 46.7118 10.0289C54.5826 10.0047 62.4534 10.0154 70.327 10.0262C68.8607 9.08361 67.7893 7.47775 67.7329 5.71078C67.5798 3.76388 68.6003 1.77939 70.2813 0.783113Z" fill="#2C64AF"/>
<path d="M36.005 34.1382C34.9255 32.8197 35.8842 30.5909 37.5813 30.4781C43.9349 30.3545 50.2912 30.4915 56.6475 30.4593C72.6711 30.4646 88.6974 30.462 104.724 30.4378C106.096 30.6231 107.745 30.0296 108.878 31.0715C110.019 32.0759 109.753 34.1329 108.387 34.8096C107.326 35.2822 106.12 34.9707 104.998 35.0566C104.984 39.2404 105 43.4243 104.987 47.6108C97.0812 43.3007 89.1379 39.0552 81.2133 34.7747C80.8642 34.5679 80.4614 34.5034 80.0693 34.4524C79.1697 33.4991 77.8324 33.2037 76.5676 33.2225C75.9151 37.2506 73.7157 40.9215 70.6947 43.6284C66.7177 47.1972 61.7175 49.4744 56.5696 50.7795C56.7361 56.9962 56.908 63.2101 57.0852 69.4268C61.841 69.1152 66.049 71.9134 69.4943 74.8861C71.6749 76.1133 74.0783 76.8814 76.3447 77.9394C66.476 77.977 56.6045 77.9528 46.7358 77.9501C43.6019 77.9931 40.836 75.3131 40.6641 72.2061C43.2045 70.1948 46.5263 69.5369 49.6843 69.2656C51.3815 69.1287 53.084 69.1421 54.7812 69.2334C54.612 63.0678 54.4589 56.9048 54.2682 50.7419C50.7047 50.7231 46.9667 49.9846 44.0853 47.7773C42.3183 46.4131 41.0481 44.3803 40.6883 42.1729C40.6614 39.8044 40.6856 37.4332 40.6776 35.062C39.1281 34.8848 37.1006 35.6098 36.005 34.1382Z" fill="#2C64AF"/>
<path d="M80.0692 34.4524C80.4612 34.5034 80.864 34.5679 81.2131 34.7746C89.1377 39.0551 97.081 43.3007 104.987 47.6107C104.965 55.8387 104.995 64.0667 104.963 72.2947C104.831 75.4259 101.92 78.0414 98.805 77.9555C91.3182 77.9474 83.8287 77.9958 76.3445 77.9394C74.0781 76.8813 71.6747 76.1133 69.4941 74.8861C71.7364 74.7975 73.9868 74.9076 76.2318 74.8324C77.4885 74.7545 78.8903 74.3678 79.6099 73.2453C79.9913 72.7136 80.0423 72.0503 80.1014 71.4246C79.5052 71.4273 78.6889 71.4676 78.9413 70.6029C80.0745 70.5358 81.3178 70.6942 82.3141 70.0283C83.7803 69.0991 84.1348 67.0421 83.5601 65.5007C83.3265 64.8213 82.6122 64.6333 81.9784 64.5555C81.9704 64.1339 81.9999 63.6371 82.4565 63.4518C83.3158 63.4007 84.4141 63.5699 84.9001 62.6542C85.6923 61.1961 85.7756 59.4291 85.6467 57.8098C85.4856 56.7571 84.3282 56.553 83.45 56.647C83.2433 56.2174 83.305 55.5782 83.8851 55.5165C85.7783 55.1056 86.9276 52.9519 86.4093 51.1259C86.2401 50.3606 85.7917 49.367 84.8625 49.4019C82.435 49.4099 80.0047 49.418 77.5771 49.418C77.0803 49.4475 76.4331 49.2434 76.3875 48.6607C76.5567 47.9061 77.1501 47.3529 77.5342 46.7058C79.1695 44.1009 80.5337 41.2303 80.8855 38.1421C81.0601 36.8665 80.8587 35.5024 80.0692 34.4524Z" fill="#224D87"/>
</svg>
