<svg width="80" height="80" viewBox="0 0 80 80" fill="none" xmlns="http://www.w3.org/2000/svg">
<g clip-path="url(#clip0_1001_17017)">
<path d="M40 77.5C60.7107 77.5 77.5 60.7107 77.5 40C77.5 19.2893 60.7107 2.5 40 2.5C19.2893 2.5 2.5 19.2893 2.5 40C2.5 60.7107 19.2893 77.5 40 77.5Z" fill="#364F6B"/>
<path d="M33 51.5L25.5 41.5C25.1022 40.9696 24.9314 40.3028 25.0251 39.6465C25.1189 38.9901 25.4696 38.3978 26 38C26.5304 37.6022 27.1972 37.4314 27.8536 37.5251C28.5099 37.6189 29.1022 37.9696 29.5 38.5L35.15 46.0325L50.62 28.355C50.828 28.0829 51.0897 27.8565 51.3889 27.6898C51.688 27.523 52.0183 27.4195 52.3591 27.3857C52.6999 27.3518 53.044 27.3884 53.3701 27.4931C53.6962 27.5977 53.9973 27.7683 54.2548 27.9942C54.5122 28.22 54.7205 28.4964 54.8668 28.8061C55.013 29.1158 55.094 29.4523 55.1048 29.7946C55.1156 30.1369 55.056 30.4778 54.9296 30.7961C54.8032 31.1144 54.6127 31.4034 54.37 31.645L36.87 51.645C36.625 51.9231 36.3211 52.1433 35.9805 52.2895C35.6399 52.4358 35.271 52.5044 34.9006 52.4906C34.5302 52.4767 34.1675 52.3806 33.8388 52.2093C33.5101 52.038 33.2236 51.7957 33 51.5Z" fill="#1BB5EC"/>
</g>
<defs>
<clipPath id="clip0_1001_17017">
<rect width="80" height="80" fill="white"/>
</clipPath>
</defs>
</svg>
